HIERARCHY
ROOT Hips
{
	OFFSET 0.000000 0.000000 0.000000
	CHANNELS 6 Xposition Yposition Zposition Zrotation Yrotation Xrotation 
	JOINT LHipJoint
	{
		OFFSET 0.000000 0.000000 0.000000
		CHANNELS 3 Zrotation Yrotation Xrotation
		JOINT LeftUpLeg
		{
			OFFSET 1.363060 -1.794630 0.839290
			CHANNELS 3 Zrotation Yrotation Xrotation
			JOINT LeftLeg
			{
				OFFSET 2.448110 -6.726130 0.000000
				CHANNELS 3 Zrotation Yrotation Xrotation
				JOINT LeftFoot
				{
					OFFSET 2.562200 -7.039590 0.000000
					CHANNELS 3 Zrotation Yrotation Xrotation
					JOINT LeftToeBase
					{
						OFFSET 0.157640 -0.433110 2.322550
						CHANNELS 3 Zrotation Yrotation Xrotation
						End Site
						{
							OFFSET 0.000000 0.000000 0.000000
						}
					}
				}
			}
		}
	}
	JOINT RHipJoint
	{
		OFFSET 0.000000 0.000000 0.000000
		CHANNELS 3 Zrotation Yrotation Xrotation
		JOINT RightUpLeg
		{
			OFFSET -1.305520 -1.794630 0.839290
			CHANNELS 3 Zrotation Yrotation Xrotation
			JOINT RightLeg
			{
				OFFSET -2.542530 -6.985550 0.000000
				CHANNELS 3 Zrotation Yrotation Xrotation
				JOINT RightFoot
				{
					OFFSET -2.568260 -7.056230 0.000000
					CHANNELS 3 Zrotation Yrotation Xrotation
					JOINT RightToeBase
					{
						OFFSET -0.164730 -0.452590 2.363150
						CHANNELS 3 Zrotation Yrotation Xrotation
						End Site
						{
							OFFSET 0.000000 0.000000 0.000000
						}
					}
				}
			}
		}
	}
	JOINT LowerBack
	{
		OFFSET 0.000000 0.000000 0.000000
		CHANNELS 3 Zrotation Yrotation Xrotation
		JOINT Spine
		{
			OFFSET 0.028270 2.035590 -0.193380
			CHANNELS 3 Zrotation Yrotation Xrotation
			JOINT Spine1
			{
				OFFSET 0.056720 2.048850 -0.042750
				CHANNELS 3 Zrotation Yrotation Xrotation
				JOINT Neck
				{
					OFFSET 0.000000 0.000000 0.000000
					CHANNELS 3 Zrotation Yrotation Xrotation
					JOINT Neck1
					{
						OFFSET -0.054170 1.746240 0.172020
						CHANNELS 3 Zrotation Yrotation Xrotation
						JOINT Head
						{
							OFFSET 0.104070 1.761360 -0.123970
							CHANNELS 3 Zrotation Yrotation Xrotation
							End Site
							{
								OFFSET 0.000000 0.000000 0.000000
							}
						}
					}
				}
				JOINT LeftShoulder
				{
					OFFSET 0.000000 0.000000 0.000000
					CHANNELS 3 Zrotation Yrotation Xrotation
					JOINT LeftArm
					{
						OFFSET 3.362410 1.200890 -0.311210
						CHANNELS 3 Zrotation Yrotation Xrotation
						JOINT LeftForeArm
						{
							OFFSET 4.983000 -0.000000 -0.000000
							CHANNELS 3 Zrotation Yrotation Xrotation
							JOINT LeftHand
							{
								OFFSET 3.483560 -0.000000 -0.000000
								CHANNELS 3 Zrotation Yrotation Xrotation
								JOINT LeftFingerBase
								{
									OFFSET 0.000000 0.000000 0.000000
									CHANNELS 3 Zrotation Yrotation Xrotation
									JOINT LeftHandIndex1
									{
										OFFSET 0.715260 -0.000000 -0.000000
										CHANNELS 3 Zrotation Yrotation Xrotation
										End Site
										{
											OFFSET 0.000000 0.000000 0.000000
										}
									}
								}
								JOINT LThumb
								{
									OFFSET 0.000000 0.000000 0.000000
									CHANNELS 3 Zrotation Yrotation Xrotation
									End Site
									{
										OFFSET 0.000000 0.000000 0.000000
									}
								}
							}
						}
					}
				}
				JOINT RightShoulder
				{
					OFFSET 0.000000 0.000000 0.000000
					CHANNELS 3 Zrotation Yrotation Xrotation
					JOINT RightArm
					{
						OFFSET -3.136600 1.374050 -0.404650
						CHANNELS 3 Zrotation Yrotation Xrotation
						JOINT RightForeArm
						{
							OFFSET -5.241900 -0.000000 -0.000000
							CHANNELS 3 Zrotation Yrotation Xrotation
							JOINT RightHand
							{
								OFFSET -3.444170 -0.000000 -0.000000
								CHANNELS 3 Zrotation Yrotation Xrotation
								JOINT RightFingerBase
								{
									OFFSET 0.000000 0.000000 0.000000
									CHANNELS 3 Zrotation Yrotation Xrotation
									JOINT RightHandIndex1
									{
										OFFSET -0.622530 -0.000000 -0.000000
										CHANNELS 3 Zrotation Yrotation Xrotation
										End Site
										{
											OFFSET 0.000000 0.000000 0.000000
										}
									}
								}
								JOINT RThumb
								{
									OFFSET 0.000000 0.000000 0.000000
									CHANNELS 3 Zrotation Yrotation Xrotation
									End Site
									{
										OFFSET 0.000000 0.000000 0.000000
									}
								}
							}
						}
					}
				}
			}
		}
	}
}
MOTION
Frames: 5
Frame Time: 0.008333
-10.374705 17.949835 -16.399318 174.140008 -5.640159 174.581517 -1.596216 1.949549 2.563597 -27.193688 -4.173516 0.111020 0.470498 6.642709 21.283078 0.159436 -7.155408 5.029753 0.342100 -3.758600 -10.398400 -0.416434 -1.542974 0.780948 10.734826 2.538519 -14.509455 -10.310414 -17.330775 60.851547 0.373134 -3.921847 -2.331275 -0.177500 2.714100 -7.483800 2.682979 3.113095 10.277845 1.136896 4.374989 3.357752 -3.036525 2.158071 -3.725848 -9.265182 5.018963 -16.325208 2.661232 6.574158 29.500575 3.955300 0.348700 16.188500 -6.463051 -1.402553 -1.243265 -81.979345 1.026513 12.507674 12.379717 -17.193122 -1.998709 -1.428871 -1.817471 12.633462 18.854359 22.789003 8.628600 -7.125000 0.000000 0.000000 -10.499200 55.877600 -2.824300 5.294717 0.696747 -0.984187 78.879715 8.055042 6.636686 -16.816750 24.689319 -3.695808 0.301073 -0.087218 5.692888 -14.874597 6.286126 -1.715400 7.125000 0.000000 0.000000 8.517100 -23.430700 4.475900 
-10.353442 17.971198 -16.304329 174.380053 -5.771695 174.513778 -1.599787 1.954250 2.560276 -26.881299 -4.205540 -0.124821 0.441553 6.597575 21.128605 0.159674 -7.099660 5.402656 0.333800 -3.713100 -10.271000 -0.411593 -1.555775 0.769445 11.129053 1.725355 -13.534828 -10.431514 -17.368739 61.222566 0.472399 -4.546665 -2.003801 -0.114500 2.182100 -6.009200 2.941836 3.211384 10.160775 1.140334 4.533665 3.375262 -3.174332 2.239516 -3.594562 -9.411576 5.008648 -16.169928 2.831896 6.463202 29.975788 4.042600 0.235700 16.383100 -6.472702 -1.386411 -1.231635 -81.625331 1.128830 11.575348 12.140470 -16.862167 -1.909420 -1.459087 -1.785734 12.925305 19.059519 22.639031 8.680000 -7.125000 0.000000 0.000000 -10.180400 55.750500 -2.705700 5.288514 0.698691 -0.982128 78.826510 8.076475 6.884281 -16.988154 24.929473 -3.775038 0.302855 -0.085861 5.361858 -14.922884 6.362722 -1.742000 7.125000 0.000000 0.000000 8.477200 -23.350500 4.470300 
-10.331583 17.991964 -16.210235 174.546217 -5.949623 174.537849 -1.607495 1.953491 2.546687 -26.660213 -4.474448 -0.361182 0.409609 6.558194 20.982396 0.154428 -6.844513 5.792585 0.252300 -3.232000 -8.925200 -0.404989 -1.571775 0.762658 11.400713 0.857966 -12.598494 -10.498506 -17.378321 61.405680 0.582202 -5.244469 -1.411440 -0.058200 1.556200 -4.280600 3.069008 3.282839 9.971658 1.129201 4.639901 3.353428 -3.253390 2.299500 -3.495294 -9.443954 5.067790 -15.917870 2.831001 6.444662 30.325401 4.038900 0.165900 16.491400 -6.479190 -1.376813 -1.221266 -81.356141 1.331445 10.212755 11.946292 -16.606095 -1.836478 -1.480815 -1.769607 13.572568 19.003371 22.765644 8.695500 -7.125000 0.000000 0.000000 -10.294900 55.867200 -2.765800 5.281021 0.686020 -0.985469 78.762866 8.043277 7.327115 -17.181907 25.194572 -3.865567 0.303336 -0.079209 5.073229 -14.905484 6.246219 -1.707000 7.125000 0.000000 0.000000 8.495700 -23.475500 4.455600 
-10.304557 18.014817 -16.120215 174.786283 -6.091694 174.545631 -1.616505 1.952025 2.537034 -26.325196 -4.651211 -0.651326 0.380662 6.526427 20.858090 0.152344 -6.608002 6.101204 0.234100 -3.114300 -8.597000 -0.399057 -1.589532 0.755805 11.789800 0.041699 -11.626478 -10.538054 -17.371128 61.496450 0.691017 -5.941989 -0.946775 -0.023300 0.984800 -2.706900 3.186528 3.350717 9.830475 1.136033 4.741573 3.307614 -3.299563 2.357610 -3.459301 -9.320535 5.162110 -15.797755 2.691166 6.456861 30.764339 3.951200 0.099600 16.697500 -6.478610 -1.376741 -1.213430 -81.100253 1.605279 8.728923 11.788793 -16.412023 -1.778242 -1.505739 -1.747594 14.370843 18.985679 22.878393 8.723300 -7.125000 0.000000 0.000000 -10.363500 55.975700 -2.812000 5.280226 0.660324 -0.993118 78.764272 8.064433 7.669681 -17.266079 25.309308 -3.906103 0.302843 -0.076732 4.968793 -14.876683 6.199642 -1.690500 7.125000 0.000000 0.000000 8.519600 -23.526100 4.458400 
-10.278624 18.033894 -16.028108 174.980569 -6.243801 174.514186 -1.622122 1.950921 2.528285 -26.048456 -4.726566 -0.934468 0.356209 6.496042 20.742989 0.150843 -6.407172 6.501576 0.224800 -3.052200 -8.424200 -0.391904 -1.604103 0.748122 12.133437 -0.752426 -10.547952 -10.526320 -17.335830 61.424822 0.762777 -6.400226 -0.665052 -0.029900 1.117000 -3.070700 3.275811 3.429289 9.729926 1.133476 4.854296 3.281868 -3.347525 2.417938 -3.417372 -9.334898 5.111920 -15.652710 2.744887 6.250143 31.219141 3.943400 -0.048600 16.918600 -6.482116 -1.359714 -1.207565 -80.857322 1.845657 7.426892 11.631333 -16.213480 -1.721991 -1.539676 -1.707789 15.036770 19.199836 22.758810 8.786400 -7.125000 0.000000 0.000000 -10.056600 55.882200 -2.704600 5.276616 0.654178 -0.993712 78.778127 8.062017 7.797341 -17.348446 25.424437 -3.945107 0.304054 -0.082444 5.079089 -14.973278 6.393955 -1.756000 7.125000 0.000000 0.000000 8.438500 -23.319100 4.455600 
